<?xml version="1.0" encoding="iso-8859-1"?>
<!-- Uploaded to: SVG Repo, www.svgrepo.com, Generator: SVG Repo Mixer Tools -->
<svg height="800px" width="800px" version="1.1" id="Layer_1" xmlns="http://www.w3.org/2000/svg" xmlns:xlink="http://www.w3.org/1999/xlink" 
	 viewBox="0 0 511.999 511.999" xml:space="preserve">
<path style="fill:#FFB657;" d="M198.653,222.135c0,0-2.069,19.861-0.835,21.095c1.234,1.234,6.905,4.687,8.263,4.687
	c1.358,0,11.293-3.805,12.451-6.405c0.997-2.238,0.267-7.892-2.566-11.292c-3.253-3.904-2.833-10.766-2.833-10.766L198.653,222.135z
	"/>
<g>
	<path style="fill:#1D1D1F;" d="M221.594,444.097c0,0-33.61,32.835-26.318,37.423c10.155,6.389,51.427-19.976,51.427-22.091
		c0-2.116-2.923-22.666-2.923-22.666L221.594,444.097z"/>
	<path style="fill:#1D1D1F;" d="M267.151,469.361c0,0-32.444,35.409-23.058,41.696c9.967,6.677,48.167-24.249,48.167-26.364
		c0-2.116-2.923-22.665-2.923-22.665L267.151,469.361z"/>
</g>
<path style="fill:#2E2E30;" d="M214.391,240.512l-0.745,207.173c0,0-0.477,6.076,15.722,6.076s17.056-7.75,17.056-7.75
	l4.316-150.078l0.787,0.113l8.48,177.441c0,0-1.002,4.756,15.197,4.756c16.2,0,17.056-7.75,17.056-7.75l1.566-222.968
	L214.391,240.512z"/>
<path style="fill:#D8D8DA;" d="M317.671,186.385c-0.978-58.155-3.582-65.452-14.102-71.794
	c-31.735-24.684-69.028-30.218-76.964-31.147c-0.262-0.05-0.509-0.116-0.79-0.146c-0.159-0.017-0.372-0.019-0.627-0.004
	c-0.077-0.007-0.118-0.01-0.118-0.01c-0.575,0.009-1.188,0.123-1.827,0.333c-4.887,1.228-14.422,6.396-16.608,23.776
	c-0.98,7.787-5.768,35.383-6.785,61.383c-1.165,29.792-3.885,51.641-3.885,51.641c0,5.383,9.183,10.765,15.485,10.303
	c0.247,5.169,0.434,8.265,0.434,8.265c1.544,7.066,41.802,28.572,80.093,17.42c0.486,11.789,1.355,15.129,1.355,15.129
	s9.431,8.871,24.397-2.613C317.727,268.919,317.828,195.722,317.671,186.385z"/>
<path style="fill:#FFB657;" d="M294.52,269.518c0,0-0.371,12.148-0.029,14.466c0.342,2.317,2.843,4.619,2.843,4.619
	s-0.226,5.613,1.95,7.23c2.176,1.616,14.783-4.508,16.718-6.493c2.719-2.791-0.615-22.897-0.615-22.897
	S297.668,259.369,294.52,269.518z"/>
<path style="fill:#C6C5CB;" d="M210.311,172.025c0.298-17.974-0.797-35.786-1.523-47.651l0.28,106.268
	c0.823,0.104,1.62,0.123,2.381,0.069C210.863,218.484,209.938,194.587,210.311,172.025z"/>
<path style="fill:#FFB657;" d="M241.59,75.357c0,0-2.25,16.999-3.324,26.339c-0.795,6.909,11.414,11.363,20.746,8.428
	c9.332-2.935,13.101-9.835,13.101-9.835c-4.402-14.823-4.115-36.31-4.115-36.31L241.59,75.357z"/>
<polygon style="fill:#FF3502;" points="251.662,110.814 238.714,108.018 241.397,118.649 228.746,179.3 237.194,198.272 
	250.413,185.843 247.252,119.661 "/>
<polygon style="fill:#FF5023;" points="238.714,108.018 241.397,118.649 247.252,119.661 251.662,110.814 "/>
<g>
	<path style="fill:#E0E0E2;" d="M270.935,95.73c0,0,0.466,1.522-0.651,2.64c-2.611,2.611-11.591,8.525-22.541,11.22l5.013,16.604
		c0,0,22.466-16.847,22.094-24.493c-0.307-6.309-4.66-9.738-4.66-9.738L270.935,95.73z"/>
	<path style="fill:#E0E0E2;" d="M239.062,95.058c0,0-3.126,3.663-5.229,10.673c-2.103,7.01,2.614,16.826,2.614,16.826l6.796-14.044
		c0,0-4.378-3.282-4.678-5.389C238.265,101.017,239.062,95.058,239.062,95.058z"/>
</g>
<path style="fill:#FEC377;" d="M219.361,47.421c0,0,2.13,31.933,9.808,37.636c7.678,5.703,31.743,0.235,45.127-22.551
	c11.166-19.009,6.507-56.294-17.495-60.248C228.766-2.359,217.679,18.844,219.361,47.421z"/>
<path style="fill:#C6C5CB;" d="M291.999,215.643c0.903-33.168-0.598-51.068-1.613-63.841l-0.001-0.008l-1.914,105.539
	c1.169-0.28,2.337-0.592,3.503-0.931C291.624,247.881,291.473,234.954,291.999,215.643z"/>
<path style="fill:#E0E0E2;" d="M259.947,147.795l18.512,8.569c0,0,0.641,20.381-0.846,21.347
	c-6.815,4.424-16.706-1.348-17.816-5.671C259.097,169.324,259.947,147.795,259.947,147.795z"/>
<path style="fill:#3E3D43;" d="M287.921,27.845c-1.069-7.653-7.207-15.049-14.933-15.16c-2.828-7.013-10.124-11.62-17.635-12.503
	c-7.511-0.884-15.119,1.528-21.626,5.382c-6.324,3.744-11.997,9.12-14.482,16.036s-1.144,15.484,4.47,20.226
	c4.295,3.628,10.358,4.552,15.931,3.808c3.752-0.501,8.199-0.354,12.912-1.65c-2.167,3.104-4.804,5.52-8.695,6.009
	c5.291,0.94,13.787-3.124,18.514-5.607c-0.378,1.607-0.122,11.554,0.896,22.476c1.056-7.542,3.163-17.84,6.859-22.476
	c1.865,6.817-2.723,21.18-3.063,29.488c5.414-7.44,12.055-16.951,15.564-23.836C286.14,43.153,288.99,35.499,287.921,27.845z"/>
<path style="fill:#FEC377;" d="M264.993,60.578c0,0,2.506-17.608,7.723-17.842c3.679-0.164,5.28,7.435,2.576,13.279
	s-10.299,11.293-10.299,11.293V60.578z"/>
</svg>