<?xml version="1.0" encoding="iso-8859-1"?>
<!-- Uploaded to: SVG Repo, www.svgrepo.com, Generator: SVG Repo Mixer Tools -->
<svg height="800px" width="800px" version="1.1" id="Layer_1" xmlns="http://www.w3.org/2000/svg" xmlns:xlink="http://www.w3.org/1999/xlink" 
	 viewBox="0 0 511.999 511.999" xml:space="preserve">
<path style="fill:#FFB657;" d="M198.64,222.064c0,0-2.069,19.865-0.835,21.1c1.234,1.234,6.906,4.688,8.265,4.688
	c1.359,0,11.295-3.806,12.454-6.407c0.997-2.238,0.268-7.894-2.567-11.294c-3.254-3.905-2.834-10.769-2.834-10.769L198.64,222.064z"
	/>
<g>
	<path style="fill:#554432;" d="M221.586,444.08c0,0-33.618,32.843-26.325,37.432c10.157,6.39,51.439-19.98,51.439-22.097
		c0-2.116-2.924-22.67-2.924-22.67L221.586,444.08z"/>
	<path style="fill:#554432;" d="M267.155,469.351c0,0-32.451,35.417-23.063,41.706c9.969,6.679,48.179-24.255,48.179-26.371
		s-2.924-22.67-2.924-22.67L267.155,469.351z"/>
</g>
<path style="fill:#884D01;" d="M214.381,240.446l-0.744,207.223c0,0-0.478,6.078,15.726,6.078s17.06-7.752,17.06-7.752
	l4.317-150.115l0.787,0.113l8.482,177.484c0,0-1.002,4.757,15.201,4.757c16.204,0,17.06-7.752,17.06-7.752l1.566-223.022
	L214.381,240.446z"/>
<g>
	<path style="fill:#59A4FF;" d="M225.808,83.192c-2.379-0.252-16.465,2.487-19.185,24.1c-0.98,7.788-5.769,35.39-6.786,61.398
		c-1.165,29.799-3.886,51.653-3.886,51.653c0,6.801,14.661,13.611,19.649,8.623c0.747-0.747,9.265-36.602,9.615-67.029
		C225.662,123.024,242.374,84.945,225.808,83.192z"/>
	<path style="fill:#59A4FF;" d="M211.871,238.917c0,0-2.103-34.856-1.571-66.974c0.446-26.952-2.239-53.56-2.117-60.266
		c0.303-16.625,10.764-28.394,16.879-28.498c0,0,42.783,3.522,78.517,31.316c0,0-3.758,139.269-8.51,140.881
		C255.88,268.671,213.457,246.174,211.871,238.917z"/>
</g>
<path style="fill:#2487FF;" d="M210.3,171.942c0.298-17.978-0.797-35.794-1.524-47.663l0.28,106.293
	c0.823,0.105,1.621,0.123,2.382,0.069C210.853,218.412,209.927,194.51,210.3,171.942z"/>
<path style="fill:#FFB657;" d="M241.585,75.251c0,0-2.251,17.003-3.325,26.346c-0.795,6.912,11.417,11.365,20.751,8.43
	c9.334-2.935,13.104-9.838,13.104-9.838c-4.403-14.826-4.116-36.319-4.116-36.319L241.585,75.251z"/>
<g>
	<path style="fill:#E0E0E2;" d="M270.939,95.629c0,0,0.466,1.523-0.651,2.641c-2.611,2.611-11.594,8.527-22.547,11.222l5.014,16.608
		c0,0,22.472-16.851,22.1-24.499c-0.307-6.311-4.661-9.74-4.661-9.74L270.939,95.629z"/>
	<path style="fill:#E0E0E2;" d="M239.058,94.957c0,0-3.127,3.664-5.23,10.676c-2.104,7.012,2.615,16.83,2.615,16.83l6.798-14.047
		c0,0-4.379-3.283-4.68-5.39C238.259,100.918,239.058,94.957,239.058,94.957z"/>
</g>
<path style="fill:#FEC377;" d="M219.353,47.308c0,0,2.131,31.941,9.81,37.645c7.68,5.705,31.75,0.235,45.138-22.556
	c11.169-19.014,6.508-56.308-17.5-60.262C228.76-2.485,217.671,18.724,219.353,47.308z"/>
<g>
	<path style="fill:#5E4C36;" d="M219.28,45.843c-0.951-5.044,1.844-13.227,5.43-15.326c7.951-4.653,15.81,2.651,21.893,3.968
		c6.826,1.477,14.356,2.863,20.471-0.512c3.096-1.71,5.293-4.617,7.323-7.513c5.668-8.085,1.056-14.932-7.626-20.942
		c-9.987-6.912-31.43-9.195-44.047,4.332C212.235,21.094,217.63,37.089,219.28,45.843z"/>
	<path style="fill:#5E4C36;" d="M263.571,63.87c1.424-8.098,2.244-11.132,3.652-15.089c2.727-7.663,7.75-7.297,9.426-5.621
		c3.033,3.033-2.091,17.419-3.686,21.401c10.393-11.971,10.031-26.332,8.363-38.188c-0.296-2.101-1.063-4.156-2.224-5.932
		c-1.161-1.777-3.076-3.203-5.199-3.206c-1.098-0.001-2.16,0.37-3.18,0.776c-6.563,2.614-9.897,9.183-11.276,15.516
		C256.871,45.369,261.873,51.932,263.571,63.87z"/>
</g>
<path style="fill:#FFB657;" d="M294.528,269.458c0,0-0.371,12.151-0.029,14.469c0.342,2.318,2.843,4.62,2.843,4.62
	s-0.226,5.615,1.95,7.231c2.177,1.617,14.787-4.509,16.722-6.495c2.72-2.791-0.616-22.902-0.616-22.902
	S297.678,259.307,294.528,269.458z"/>
<path style="fill:#59A4FF;" d="M303.58,114.494c0,0-13.305,3.158-13.938,18.993c-0.633,15.836,3.769,30.536,2.365,82.084
	c-1.253,46.043,1.331,55.902,1.331,55.902s9.433,8.873,24.403-2.614c0,0,0.101-73.215-0.055-82.554
	C316.709,128.136,314.102,120.837,303.58,114.494z"/>
<path style="fill:#2487FF;" d="M292.007,215.571c0.903-33.177-0.598-51.081-1.613-63.857l-0.001-0.008l-1.914,105.565
	c1.169-0.28,2.338-0.593,3.504-0.931C291.632,247.816,291.481,234.887,292.007,215.571z"/>
<path style="fill:#FEC377;" d="M264.996,60.468c0,0,2.507-17.612,7.725-17.847c3.679-0.164,5.281,7.437,2.577,13.282
	c-2.704,5.845-10.302,11.295-10.302,11.295L264.996,60.468L264.996,60.468z"/>
</svg>